# xmcd CD database file
#
# Track frame offsets:
#	150
#	20100
#	68342
#	149705
#	288397
#
# Disc length: 4737 seconds
#
# Revision: 0
# Processed by: cddbd v1.5.2PL0 Copyright (c) Steve Scherf et al.
# Submitted via: CDex 1.70beta3
#
DISCID=4a127f05
DTITLE=Tyshawn Sorey - Verisimilitude
DYEAR=2017
DGENRE=Jazz
TTITLE0=Cascade in Slow Motion
TTITLE1=Flowers for Prashant
TTITLE2=Obsidian
TTITLE3=Algid November
TTITLE4=Contemplating Tranquility
EXTD=YEAR: 2017
EXTT0=
EXTT1=
EXTT2=
EXTT3=
EXTT4=
PLAYORDER=
